<svg xmlns="http://www.w3.org/2000/svg" viewBox="0 0 61.13 51.7"><defs><style>.cls-1{fill:#b6d2de;}</style></defs><g id="Layer_2" data-name="Layer 2"><g id="Layer_1-2" data-name="Layer 1"><path class="cls-1" d="M61,36.67,50.6,22a.84.84,0,0,0-1.38,0L38.85,36.67A.85.85,0,0,0,39.54,38h4.22a.85.85,0,0,1,.85.84v3a.84.84,0,0,1-.82.84l-31.95,1a.83.83,0,0,1-.82-.57L6.86,30.85a.84.84,0,0,0-1.64.27V50.85a.84.84,0,0,0,.84.85h48.7a.85.85,0,0,0,.85-.85v-12a.85.85,0,0,1,.84-.84h3.83A.84.84,0,0,0,61,36.67Z"/><path class="cls-1" d="M.16,15,10.53,29.72a.84.84,0,0,0,1.38,0L22.28,15a.85.85,0,0,0-.69-1.33H17.36a.85.85,0,0,1-.84-.85v-3A.83.83,0,0,1,17.34,9l32-1a.84.84,0,0,1,.82.57l4.16,12.26a.84.84,0,0,0,1.64-.27V.84A.85.85,0,0,0,55.07,0H6.36a.85.85,0,0,0-.84.84v12a.85.85,0,0,1-.85.85H.85A.84.84,0,0,0,.16,15Z"/></g></g></svg>